<svg xmlns="http://www.w3.org/2000/svg" viewBox="0 0 189.5 189.5" height="716.22" width="716.22" version="1.1" id="svg94"><g id="layer2" display="inline" stroke="#000" stroke-linecap="round" stroke-linejoin="bevel"><g id="g84"><path d="M80.596 114.4c1.701 20.41 19.372 31.088 20.884 36.947m0 0c35.34-.661 44.317-12.851 44.317-12.851M80.596 114.4c19.705-78.12-2.612-88.01-2.612-88.01m-17.64 29.668c8.285-9.355 8.018-19.511 11.894-25.658 3.875-6.147 5.746-4.01 5.746-4.01m-17.64 29.668C32.31 66.68 33.16 72.728 32.5 73.01c-.661.284-5.953 11.907-5.48 19.75.472 7.843-1.324 18.71-11.245 23.34-9.922 4.63-12.38 5.575-12.38 5.575m77.201-7.275c-9.26 37.514-12.945 45.924-12.945 45.924" fill="none" stroke-width="4" id="path2"/><path d="M58.485 56.664s-.945-19.938-6.71-26.364c-5.763-6.425-8.126-.472-15.685 37.892m47.341-35.624S98.072 12.075 126.29 8.866c28.253-3.213 44.926 6.126 50.974 9.433 6.048 3.308 9.45 7.938 9.45 7.938M117.26 150.213s5.575 19.56.85 23.813m0 0s-6.047 6.52-7.086 12.19m42.616-54.429s-.283 26.458 9.733 33.45m0 .001s12.379-2.174 23.246 6.33M76.817 149.552s-4.725 15.308 8.977 36.758m-8.977-36.758s-2.08-2.363-6.237 2.362m-19.844-10.961l13.891 17.67s5.519 4.279 7.125 9.76m-21.016-27.43s-3.023-1.229-3.118 1.134c-.094 2.362 1.228 8.22 3.59 10.583 2.363 2.362 10.206 10.205 9.923 15.497m-.001 0s.331.803-1.606.378c-1.937-.425-9.118-3.922-10.866-4.158-1.749-.236-12.426-8.977-18.049-7.748-5.622 1.228 2.977 6.661 2.977 6.661s20.6 12.474 19.796 15.214c-.803 2.74-10.489-1.7-10.489-1.7s-2.882-.993-6.52-.757c-3.638.236-3.827-2.079-7.984-2.315-4.158-.236-4.394 4.678-.52 5.008 3.874.331 16.3 7.418 16.3 7.418M3.395 161.883s11.34 10.725 21.875 13.087" fill="none" stroke-width="4" id="path4"/><path d="M111.66 110.781s-18.496-4.413-9.235-40.51m3.118 13.324s4.536 10.205 10.3 16.253m-3.969-25.514s-.945 16.537 3.969 25.514m-3.969-25.514s-1.417 19.088 15.308 27.782m1.795-26.364s1.111 25.646 33.168 37.986m-19.844-18.993s9.45 15.78 19.844 18.993m-19.844-18.993s10.678 14.836 23.246 16.442m0 0s13.134 4.914 20.788-1.134M147.12 80.76s3.97 18.615 12.757 25.23m0 0s14.174 10.678 26.458 4.063M147.12 80.76s5.953 24.285 28.254 21.923M151.94 79.154s5.953 22.395 23.434 23.529m-46.397-26.931s-4.724 12.473-1.795 26.364" fill="none" stroke-width="2.5" id="path6"/><path d="M150.48 108.242s-6.881 24.856-11.826 27.796" fill="none" stroke-width="2" id="path8"/><path d="M138.654 136.038s5.279-1.67 7.617-5.813m.869-5.479s.668 18.508-7.283 23.787m13.783-16.746s-8.104 16.211-13.783 16.746m6.414-18.308s.401-.869.869-1.604m6.5 3.166s2.988-5.972 4.458-10.115m-4.458 10.115s6.462-5.037 7.732-7.242m0 .001s-1.27 22.316 8.553 29.8m0 0s4.744 3.608 9.087 2.606m-12.762-25.19s-3.542 22.05 12.762 25.19m-12.762-25.19s3.808 17.773 13.23 14.7m-11.426-21.449s-1.07 19.043 11.425 21.449m7.284 3.474s-14.233 10.624-17.774 9.89m10.357-10.959s-3.007 7.884-10.357 10.958" fill="none" stroke-width="2" id="path10"/><path d="M183.622 145.994s-5.345-.134-11.76 7.15c-6.414 7.282-8.285 8.084-16.303 7.75m5.88-4.61c-3.207 2.338-2.272 3.675-5.88 4.61m-.549-30.194s2.93 12.662 9.97 17.434m9.822-24.257s-1.47 3.274 9.288 16.504" fill="none" stroke-width="2" id="path12"/><path d="M175.604 127.753l-.601 14.9m.2-3.474s-.334.735-4.744 3.942c-4.41 3.207-1.27 7.216-1.27 7.216m5.814-7.684s3.875-1.537 3.608-6.147m-.001 0s8.153-10.691 8.153-13.831m.133 6.548s-7.016 12.829-10.223 13.697m10.357-8.82s-7.083 7.885-10.357 8.82m6.949 3.074s.602 2.806-7.817 9.087m11.091-2.539s-4.543 3.34-6.214 3.875m0 0s3.341.268 6.014-1.737m-25.257 1.604s-1.403.334-3.675 1.002m28.004-21.672s-1.89 13.843-21.025 16.961m22.017-12.378s-3.826 11.717-22.017 12.378m4.631-8.693s4.3.52 5.48-2.646m-6.284 7.607s6.52-1.701 14.127-6.378m-28.017 3.401s2.457 2.08 3.59 5.481m3.072-6.757s0 4.111-3.071 6.757m3.235-33.751l-.134 6.95m.067 31.738s6.376-2.67 8.643-7.96m5.121-9.145s2.203-1.45 3.408-2.673m-.119-1.837l.119 1.837m-.119-1.837s3.73 3.345 5.598 5.712" fill="none" stroke-width="2" id="path16"/><path d="M92.15 63.274s-2.438 41.243 19.51 47.507M86.408 86.004S90.99 74.571 92.172 69.8m10.253.471s.17 5.915 3.118 13.324m12.615-29.01s-5.811 7.654-6.284 19.75m-5.008-21.215s-2.504 9.166-4.441 17.151m27.944-9.67s-1.38 6.848-1.392 15.15m20.969-11.742s-.156 8.44 1.994 15.145m-13.954 7.974s-.657.2 4.315 7.617" fill="none" stroke-width="2.5" id="path18"/><path d="M120 163.537s-12.095 6.425-16.63 9.638c-4.536 3.213-11.718 4.82-19.088 10.772m79.091-18.709c-20.848 15.148-47.72 20.694-47.72 20.694" fill="none" stroke-width="4" id="path20"/><path d="M33.727 112.226s5.954-26.08 34.113-18.142m-34.113 18.142s5.576-2.645 11.15-4.063m.001 0c13.134-3.685 17.292-9.733 17.292-9.733m0 0c3.024-4.252 5.67-4.346 5.67-4.346m-38.081 29.482s15.888-16.471 37.136-10.49M38.83 125.645s10.3-10.678 32.412-1.796m-29.105 6.237s11.907-5.103 24.38 6.52m-36.758-13.04l4.63.661m0 0s7.748-10.772 32.506-11.15M38.83 125.645c-1.417 2.078 3.969.567 3.969.567m0 0s7.201-5.178 28.443-2.363m-29.105 6.237c-2.078 1.984 4.158 2.362 4.158 2.362m0 0s6.78-1.726 20.222 4.158m-32.79-24.38s-.867-26.249 30.428-22.111m0 0s2.645-5.48 6.709-6.52c4.063-1.04 5.858 1.7 6.047 4.441.19 2.74-4.158 5.859-6.614 5.953l-2.457.095" fill="none" stroke-width="2" id="path22"/><path d="M3.773 144.354s6.236-.283 10.016.756c3.78 1.04 7.37 2.835 13.513 3.497 6.142.661 10.016-2.174 11.906-2.268" fill="none" stroke-width="4" id="path24"/><path d="M39.208 146.339s.662-2.457 3.78-2.363c3.118.095 4.252.473 5.386 3.402 1.134 2.93-1.04 6.331-5.67 7.56-4.63 1.228-12 .85-20.127-2.08-8.126-2.928-11.15-4.913-11.15-4.913m0 0s-5.67 1.04-8.032-.472m17.009 15.591s10.394 2.174 14.93 1.134m-14.93-1.134s12.851 8.221 16.536 8.505c3.686.283 5.953-2.174 5.953-2.174m-34.679-9.544s12.851 9.828 22.017 12.19m0 0s2.079 2.504 5.434 4.11m-27.451-16.3c-1.512-.897.473 2.646 3.638 5.812 3.166 3.165 9.591 8.174 13.418 9.307m68.934-27.592s4.157 18.994 17.009 18.143M73.604 140.67c.945 2.456 9.26 15.213 17.387 18.142m-10.017-14.647s1.89 8.977 10.017 14.647m-10.017-14.647s13.135 22.679 30.239 21.356m-14.93-12.568s10.96 11.812 23.15 7.938m-38.459-16.726s-1.52-7.325-1.587-8.728" fill="none" stroke-width="4" id="path26"/><path d="M37.232 101.966c-.013-.394 1.684-3.037 2.736-4.262 3.066-3.57 7.419-5.777 13.017-6.6 1.693-.25 2.899-.288 6.13-.196 2.212.063 4.33.165 4.706.228.81.134.905.047 2.209-2.006 1.127-1.776 2.707-3.375 3.964-4.012 1-.507 2.594-.775 3.402-.572 1.251.314 2.358 1.953 2.366 3.5.007 1.54-1.569 3.287-3.94 4.369-1.442.658-3.357.672-6.159.045-3.42-.765-5.173-.928-8.782-.819-3.427.104-4.785.321-7.401 1.182-4.532 1.492-8.763 4.63-11.827 8.773-.229.309-.418.475-.421.37z" fill="#000" stroke-width="1.768" id="path28"/><path d="M32.899 122.987c-.457-.066-.826-.136-.819-.155.02-.054 1.161-.977 1.954-1.579 6.89-5.233 14.709-8.177 22.427-8.443l.702-.024-.837.138c-4.855.803-8.912 1.958-12.727 3.626-.798.349-2.87 1.408-3.649 1.866-2.092 1.23-3.976 2.657-5.385 4.082-.463.469-.642.62-.725.616-.06-.003-.484-.06-.941-.127zm7.659 2.539c.202-.166 1.106-.768 1.539-1.023 2.504-1.476 5.5-2.47 8.758-2.901 1.283-.17 1.85-.213 3.314-.244 2.16-.046 4.129.103 6.431.487l.772.129-2.362.029c-2.96.037-4.457.129-6.76.416-3.912.488-7.447 1.467-9.502 2.633-.22.125-.53.253-.745.307-.466.118-1.347.287-1.482.285-.096-.002-.094-.01.037-.118zm18.662 7.32c-2.134-.644-4.969-1.233-7.062-1.468-1.763-.198-4.075-.219-5.396-.048-.65.084-.695.085-1.333.004-.98-.123-2.275-.405-2.275-.495 0-.043.51-.195 1.183-.353a25.79 25.79 0 0 1 2.465-.405c.709-.078 3.267-.08 3.976-.001 2.858.313 5.255.999 7.788 2.227.96.466 1.444.73 1.333.725a8.45 8.45 0 0 1-.678-.186z" fill="#000" stroke-width=".442" id="path30"/><path d="M129.796 180.841c.005-.005.128-.058.275-.118a93.573 93.573 0 0 0 8.212-3.854 92.804 92.804 0 0 0 20.358-14.63c.177-.17.324-.305.326-.301.684 1.08 1.645 2.254 2.474 3.021.134.124.243.23.243.236 0 .028-1.841 1.28-2.79 1.897-8.03 5.225-17.644 9.803-28.39 13.52-.595.206-.727.248-.708.23z" fill="#000" stroke-width=".126" id="path34"/><path d="M124.071 184.78a163.289 163.289 0 0 1 .989-.295c.045-.013.067-.018.069-.013.002.007.05.3.05.307 0 .002-.25.004-.557.003-.306 0-.554-.002-.55-.003z" fill="#000" stroke-width=".045" id="path44"/><path d="M124.048 184.784c.014-.004.017-.004.017 0v.003h-.029z" fill="#000" stroke-width=".008" id="path46"/><path d="M169.967 153.7c-.64-.527-1.01-.917-.919-.965.046-.024.249-.064.45-.09a6.4 6.4 0 0 0 .507-.08c.107-.026.226.067.525.407l.386.44-.257.293c-.142.16-.273.294-.291.295-.019.002-.2-.133-.401-.3z" fill="#000" stroke-width=".505" id="path48"/><path d="M173.46 155.728c-.754-.316-2.107-1.01-2.17-1.114-.018-.027.36-.473.42-.498.016-.006.115.063.22.154.457.392 1.18.899 1.797 1.261.183.108.34.2.348.206.017.013-.136.178-.162.175-.01-.001-.215-.084-.453-.184zm-.583 2.446l.348-.278c.184-.146.474-.387.645-.535l.31-.27.208.064c.325.1.315.091.189.169-.17.103-1.653.862-1.686.862-.015 0-.021-.006-.014-.012z" fill="#000" stroke-width=".253" id="path50"/><path d="M175.39 156.377l-.125-.03a8.254 8.254 0 0 1-.263-.069s.012-.014.028-.029l.028-.028.088.04a16.51 16.51 0 0 0 .267.121.13.13 0 0 1-.024-.005z" fill="#000" stroke-width=".022" id="path52"/><path d="M172.615 158.342a7.794 7.794 0 0 1 .147-.105l.006.01.009.014.004.004-.006.003a.361.361 0 0 0-.046.021 1.671 1.671 0 0 1-.115.053z" fill="#000" stroke-width=".008" id="path54"/><path d="M178.879 134.343a1.524 1.524 0 0 1-.057-.053l.01-.02.008-.019.049.07.048.072z" fill="#000" stroke-width=".016" id="path64"/><path d="M174.983 145.79a7.056 7.056 0 0 1-1.325-.798c-.208-.156-.483-.382-.483-.397 0-.012.314-.515.338-.54.012-.014.035.002.137.093.575.516 1.298 1.04 1.949 1.413l.102.059-.266.12c-.146.066-.274.12-.285.12-.01 0-.086-.032-.167-.07z" fill="#000" stroke-width=".089" id="path72"/><path d="M177.077 146.311a5.258 5.258 0 0 1-.397-.033l.092-.044.093-.044.06.025c.05.022.136.057.223.092l.02.008h-.023l-.067-.004z" fill="#000" stroke-width=".022" id="path74"/></g><g transform="translate(.499 -.067)" id="g92" stroke-width="8"><rect ry="6.048" y="110.491" x="2.922" height="183.696" width="183.696" transform="translate(0 -107.5)" fill="none" id="rect86"/><circle r="91.848" cy="202.34" cx="94.771" transform="translate(0 -107.5)" fill="none" id="circle88"/><path d="M7.009 31.997l.064-23.902.625-.506c.604-.49 1.385-.506 24.326-.506h23.702l-3.424 1.7c-18.83 9.345-33.892 24.358-43.425 43.28l-1.932 3.836zm.568 149.948c-.487-.537-.506-1.375-.571-24.408l-.067-23.85 1.549 3.175c9.214 18.884 24.634 34.42 43.575 43.903l3.429 1.717-23.705.01-23.706.01zm130.994-1.775c18.432-9.501 32.803-24.049 42.133-42.647l1.924-3.836-.068 23.902-.068 23.902-.625.505c-.604.49-1.377.506-24.21.5l-23.584-.007zM180.81 52.403c-9.396-18.908-24.073-33.715-42.873-43.253l-4.074-2.067h23.72c23.139 0 23.73.013 24.233.515.283.283.584.908.67 1.389.086.481.123 11.208.081 23.837l-.075 22.963z" fill="#000" id="path90"/></g></g></svg>